<!-- Generated by IcoMoon.io -->
<svg version="1.1" xmlns="http://www.w3.org/2000/svg" width="32" height="32" viewBox="0 0 32 32">
<title>facebook</title>
<path d="M30.237 0h-28.474c-0.972 0-1.763 0.791-1.763 1.762v28.452c0 0.971 0.792 1.762 1.763 1.762h15.328v-12.369h-4.174v-4.83h4.174v-3.56c0-4.135 2.531-6.376 6.213-6.376 1.763 0 3.286 0.132 3.73 0.192v4.315h-2.555c-2.003 0-2.399 0.947-2.399 2.349v3.080h4.786l-0.624 4.83h-4.162v12.392h8.156c0.971 0 1.763-0.791 1.763-1.762v-28.464c0-0.983-0.78-1.774-1.763-1.774z"></path>
</svg>
