<!-- Generated by IcoMoon.io -->
<svg version="1.1" xmlns="http://www.w3.org/2000/svg" width="28" height="32" viewBox="0 0 28 32">
<title>share-dots</title>
<path d="M11.817 7.475l6.139 4.093c1.067-0.973 2.486-1.567 4.044-1.567 3.314 0 6 2.686 6 6s-2.686 6-6 6c-1.558 0-2.977-0.594-4.044-1.567l-6.139 4.093c0.119 0.472 0.183 0.966 0.183 1.475 0 3.314-2.686 6-6 6s-6-2.686-6-6c0-3.314 2.686-6 6-6 1.35 0 2.595 0.446 3.598 1.198l6.467-4.312c-0.043-0.289-0.065-0.585-0.065-0.886s0.022-0.597 0.065-0.886l-6.467-4.312c-1.002 0.752-2.248 1.198-3.598 1.198-3.314 0-6-2.686-6-6s2.686-6 6-6c3.314 0 6 2.686 6 6 0 0.509-0.063 1.003-0.183 1.475z"></path>
</svg>
