<!-- Generated by IcoMoon.io -->
<svg version="1.1" xmlns="http://www.w3.org/2000/svg" width="29" height="32" viewBox="0 0 29 32">
<title>user</title>
<path d="M14.594 14.669c3.042 0 5.503-2.452 5.503-5.471s-2.462-5.471-5.503-5.471c-3.042 0-5.503 2.452-5.503 5.471s2.462 5.471 5.503 5.471zM14.594 17.396c-4.546 0-8.231-3.67-8.231-8.198s3.685-8.198 8.231-8.198c4.546 0 8.231 3.67 8.231 8.198s-3.685 8.198-8.231 8.198zM3.66 30.977l-2.751 0.023v-4.28c0-5.492 6.105-6.629 13.636-6.629s13.636 1.137 13.636 6.629v4.049c-1.834 0.005-2.751 0.005-2.751 0v-4.049c0-2.617-3.154-3.858-10.886-3.858s-10.886 1.241-10.886 3.858v4.257z"></path>
</svg>
